<svg width="610.6px" height="121.4px" xmlns="http://www.w3.org/2000/svg" viewBox="-55.31718749999999 14.300000000000004 610.634375 121.39999999999999" style="background: rgb(255, 255, 255)" preserveAspectRatio="xMidYMid"><defs><linearGradient id="editing-gradient-gradient" x1="0" x2="1" y1="0.5" y2="0.5" gradientUnits="objectBoundingBox"><stop offset="0" stop-color="#4e45e7"></stop><stop offset="1" stop-color="#ff66c5"></stop></linearGradient></defs><g><g transform="matrix(1.3,0,0,1.4,-35,25.3)"><path d="M 18 51.7 L 4 51.7 L 12.2 9.4 L 26.3 9.4 L 18 51.7 Z M 73.7 52.9 L 73.7 52.9 L 73.7 52.9 Q 66 52.9 66 46.9 L 66 46.9 L 66 46.9 Q 66 44.3 67.1 39.2 L 67.1 39.2 L 67.1 39.2 Q 68.2 34.1 68.6 32.1 L 68.6 32.1 L 68.6 32.1 Q 69.5 27.4 69.5 25.9 L 69.5 25.9 L 69.5 25.9 Q 69.5 22.7 67.1 22.7 L 67.1 22.7 L 67.1 22.7 Q 65.5 22.7 64 24.9 L 64 24.9 L 64 24.9 Q 62.4 27.1 61.7 31.5 L 61.7 31.5 L 57.7 51.7 L 45.3 52.9 L 48.7 35.5 L 48.7 35.5 Q 49.3 32.6 49.8 29.4 L 49.8 29.4 L 49.8 29.4 Q 50.3 26.1 50.3 25.6 L 50.3 25.6 L 50.3 25.6 Q 50.3 22.7 48.1 22.7 L 48.1 22.7 L 48.1 22.7 Q 46.7 22.7 45.1 24.8 L 45.1 24.8 L 45.1 24.8 Q 43.5 27 42.6 31.5 L 42.6 31.5 L 38.7 51.7 L 26.1 52.9 L 32.8 19 L 43.2 17.7 L 42.1 24.2 L 42.1 24.2 Q 43.8 20.7 46.9 19.2 L 46.9 19.2 L 46.9 19.2 Q 49.9 17.7 54.7 17.7 L 54.7 17.7 L 54.7 17.7 Q 57.5 17.7 59.3 19.1 L 59.3 19.1 L 59.3 19.1 Q 61.1 20.4 61.6 22.6 L 61.6 22.6 L 61.6 22.6 Q 62.7 20.4 65.5 19 L 65.5 19 L 65.5 19 Q 68.3 17.7 71.7 17.7 L 71.7 17.7 L 71.7 17.7 Q 75.2 17.7 76.8 18.5 L 76.8 18.5 L 76.8 18.5 Q 78.5 19.2 79.6 20.4 L 79.6 20.4 L 79.6 20.4 Q 81.3 22.7 81.3 26.8 L 81.3 26.8 L 81.3 26.8 Q 81.3 30.8 79.6 39.2 L 79.6 39.2 L 79.6 39.2 Q 78.7 43.3 78.7 44.8 L 78.7 44.8 L 78.7 44.8 Q 78.7 46.3 79.5 47.2 L 79.5 47.2 L 79.5 47.2 Q 80.4 48.1 81.7 48.2 L 81.7 48.2 L 81.7 48.2 Q 81 50.4 78.8 51.7 L 78.8 51.7 L 78.8 51.7 Q 76.6 52.9 73.7 52.9 Z M 89.4 49.7 L 89.4 49.7 L 89.4 49.7 Q 87.9 48.1 87.2 45.4 L 87.2 45.4 L 87.2 45.4 Q 86.5 42.8 86.5 38.5 L 86.5 38.5 L 86.5 38.5 Q 86.5 34.2 88 30.3 L 88 30.3 L 88 30.3 Q 89.5 26.4 92.2 23.6 L 92.2 23.6 L 92.2 23.6 Q 97.7 17.7 106.8 17.7 L 106.8 17.7 L 106.8 17.7 Q 110 17.7 112.4 18.8 L 112.4 18.8 L 123.3 17.7 L 118.6 42.7 L 118.6 42.7 Q 118.4 43.5 118.4 44.9 L 118.4 44.9 L 118.4 44.9 Q 118.4 46.3 119.3 47.2 L 119.3 47.2 L 119.3 47.2 Q 120.1 48.1 121.4 48.2 L 121.4 48.2 L 121.4 48.2 Q 120.8 50.4 118.4 51.7 L 118.4 51.7 L 118.4 51.7 Q 116.1 52.9 113.5 52.9 L 113.5 52.9 L 113.5 52.9 Q 110.9 52.9 109.1 51.9 L 109.1 51.9 L 109.1 51.9 Q 107.3 51 106.8 49.3 L 106.8 49.3 L 106.8 49.3 Q 105.8 50.9 103.6 51.9 L 103.6 51.9 L 103.6 51.9 Q 101.5 52.9 98.5 52.9 L 98.5 52.9 L 98.5 52.9 Q 95.6 52.9 93.3 52.2 L 93.3 52.2 L 93.3 52.2 Q 90.9 51.4 89.4 49.7 Z M 102.9 23.8 L 102.9 23.8 L 102.9 23.8 Q 102.2 24.9 101.5 26.9 L 101.5 26.9 L 101.5 26.9 Q 100.9 28.8 99.8 34 L 99.8 34 L 99.8 34 Q 98.8 39.2 98.8 43 L 98.8 43 L 98.8 43 Q 98.8 46.7 99.3 47.8 L 99.3 47.8 L 99.3 47.8 Q 99.9 48.8 100.9 48.8 L 100.9 48.8 L 100.9 48.8 Q 103 48.8 104.5 46.9 L 104.5 46.9 L 104.5 46.9 Q 106 44.9 106.6 41.5 L 106.6 41.5 L 110 22.7 L 110 22.7 Q 108.6 21.6 107.1 21.6 L 107.1 21.6 L 107.1 21.6 Q 105.5 21.6 104.6 22.1 L 104.6 22.1 L 104.6 22.1 Q 103.6 22.6 102.9 23.8 Z M 131.1 24.9 L 131.1 24.9 L 131.1 24.9 Q 133.3 21.8 136.6 19.8 L 136.6 19.8 L 136.6 19.8 Q 139.9 17.7 143.9 17.7 L 143.9 17.7 L 143.9 17.7 Q 147.9 17.7 149.8 19 L 149.8 19 L 162.4 17.7 L 158 42.3 L 158 42.3 Q 155.8 54.9 151.1 59.8 L 151.1 59.8 L 151.1 59.8 Q 146.5 64.5 137.7 64.5 L 137.7 64.5 L 137.7 64.5 Q 131 64.5 127.1 62.3 L 127.1 62.3 L 127.1 62.3 Q 123.3 60.2 123.3 56.7 L 123.3 56.7 L 123.3 56.7 Q 123.3 54.1 125.3 52.6 L 125.3 52.6 L 125.3 52.6 Q 127.2 51.1 130.3 51.1 L 130.3 51.1 L 130.3 51.1 Q 133 51.1 135.1 52.3 L 135.1 52.3 L 135.1 52.3 Q 136.3 52.9 136.8 53.8 L 136.8 53.8 L 136.8 53.8 Q 135.4 55.1 135.4 57.2 L 135.4 57.2 L 135.4 57.2 Q 135.4 60 137.9 60 L 137.9 60 L 137.9 60 Q 142.2 60 144.7 49.9 L 144.7 49.9 L 144.7 49.9 Q 145.4 47.1 145.9 44.4 L 145.9 44.4 L 145.9 44.4 Q 143.1 47.9 136.5 47.9 L 136.5 47.9 L 136.5 47.9 Q 132 47.9 129.4 45.7 L 129.4 45.7 L 129.4 45.7 Q 126.7 43.5 126.7 38.4 L 126.7 38.4 L 126.7 38.4 Q 126.7 35.2 127.8 31.6 L 127.8 31.6 L 127.8 31.6 Q 128.9 28 131.1 24.9 Z M 139.4 38.6 L 139.4 38.6 L 139.4 38.6 Q 139.4 43 141.6 43 L 141.6 43 L 141.6 43 Q 143.2 43 144.7 41.3 L 144.7 41.3 L 144.7 41.3 Q 145.8 39.9 146.3 38 L 146.3 38 L 149.5 21.5 L 149.5 21.5 Q 149.2 21.4 148.9 21.3 L 148.9 21.3 L 148.9 21.3 Q 148.2 21.1 147.4 21.1 L 147.4 21.1 L 147.4 21.1 Q 143.5 21.1 141.2 27.5 L 141.2 27.5 L 141.2 27.5 Q 139.4 32.5 139.4 38.6 Z M 190.8 40.8 L 190.8 40.8 L 190.8 40.8 Q 192.4 41.9 192.4 44.3 L 192.4 44.3 L 192.4 44.3 Q 192.4 46.7 191.2 48.3 L 191.2 48.3 L 191.2 48.3 Q 190 49.8 188 50.8 L 188 50.8 L 188 50.8 Q 183.9 52.9 179.5 52.9 L 179.5 52.9 L 179.5 52.9 Q 175.1 52.9 172.5 52 L 172.5 52 L 172.5 52 Q 169.9 51 168.1 49.2 L 168.1 49.2 L 168.1 49.2 Q 164.8 45.8 164.8 39.6 L 164.8 39.6 L 164.8 39.6 Q 164.8 30 170 24.1 L 170 24.1 L 170 24.1 Q 175.6 17.7 185.4 17.7 L 185.4 17.7 L 185.4 17.7 Q 191.5 17.7 194.5 20.3 L 194.5 20.3 L 194.5 20.3 Q 196.8 22.2 196.8 25.4 L 196.8 25.4 L 196.8 25.4 Q 196.8 36.6 177.3 36.6 L 177.3 36.6 L 177.3 36.6 Q 177 38.3 177 39.7 L 177 39.7 L 177 39.7 Q 177 42.6 178.4 43.8 L 178.4 43.8 L 178.4 43.8 Q 179.7 44.9 182.1 44.9 L 182.1 44.9 L 182.1 44.9 Q 184.5 44.9 187.1 43.8 L 187.1 43.8 L 187.1 43.8 Q 189.7 42.6 190.8 40.8 Z M 177.7 33.9 L 177.7 33.9 L 177.7 33.9 Q 182.3 33.9 184.9 31 L 184.9 31 L 184.9 31 Q 187.5 28.4 187.5 24.1 L 187.5 24.1 L 187.5 24.1 Q 187.5 22.6 187 21.8 L 187 21.8 L 187 21.8 Q 186.4 21 185.4 21 L 185.4 21 L 185.4 21 Q 184.3 21 183.3 21.4 L 183.3 21.4 L 183.3 21.4 Q 182.4 21.8 181.5 23.2 L 181.5 23.2 L 181.5 23.2 Q 179.1 26.4 177.7 33.9 Z M 216.7 24.9 L 216.7 24.9 L 216.7 24.9 Q 218.8 21.8 222.1 19.8 L 222.1 19.8 L 222.1 19.8 Q 225.4 17.7 229.5 17.7 L 229.5 17.7 L 229.5 17.7 Q 233.5 17.7 235.4 19 L 235.4 19 L 248 17.7 L 243.6 42.3 L 243.6 42.3 Q 241.4 54.9 236.6 59.8 L 236.6 59.8 L 236.6 59.8 Q 232.1 64.5 223.2 64.5 L 223.2 64.5 L 223.2 64.5 Q 216.5 64.5 212.7 62.3 L 212.7 62.3 L 212.7 62.3 Q 208.8 60.2 208.8 56.7 L 208.8 56.7 L 208.8 56.7 Q 208.8 54.1 210.8 52.6 L 210.8 52.6 L 210.8 52.6 Q 212.8 51.1 215.9 51.1 L 215.9 51.1 L 215.9 51.1 Q 218.6 51.1 220.6 52.3 L 220.6 52.3 L 220.6 52.3 Q 221.8 52.9 222.4 53.8 L 222.4 53.8 L 222.4 53.8 Q 220.9 55.1 220.9 57.2 L 220.9 57.2 L 220.9 57.2 Q 220.9 60 223.5 60 L 223.5 60 L 223.5 60 Q 227.8 60 230.2 49.9 L 230.2 49.9 L 230.2 49.9 Q 230.9 47.1 231.5 44.4 L 231.5 44.4 L 231.5 44.4 Q 228.6 47.9 222.1 47.9 L 222.1 47.9 L 222.1 47.9 Q 217.6 47.9 214.9 45.7 L 214.9 45.7 L 214.9 45.7 Q 212.3 43.5 212.3 38.4 L 212.3 38.4 L 212.3 38.4 Q 212.3 35.2 213.4 31.6 L 213.4 31.6 L 213.4 31.6 Q 214.5 28 216.7 24.9 Z M 225 38.6 L 225 38.6 L 225 38.6 Q 225 43 227.2 43 L 227.2 43 L 227.2 43 Q 228.8 43 230.2 41.3 L 230.2 41.3 L 230.2 41.3 Q 231.4 39.9 231.8 38 L 231.8 38 L 235.1 21.5 L 235.1 21.5 Q 234.8 21.4 234.4 21.3 L 234.4 21.3 L 234.4 21.3 Q 233.8 21.1 233 21.1 L 233 21.1 L 233 21.1 Q 229.1 21.1 226.8 27.5 L 226.8 27.5 L 226.8 27.5 Q 225 32.5 225 38.6 Z M 253.2 49.7 L 253.2 49.7 L 253.2 49.7 Q 251.7 48.1 251.1 45.4 L 251.1 45.4 L 251.1 45.4 Q 250.4 42.8 250.4 38.5 L 250.4 38.5 L 250.4 38.5 Q 250.4 34.2 251.9 30.3 L 251.9 30.3 L 251.9 30.3 Q 253.3 26.4 256 23.6 L 256 23.6 L 256 23.6 Q 261.5 17.7 270.6 17.7 L 270.6 17.7 L 270.6 17.7 Q 273.9 17.7 276.2 18.8 L 276.2 18.8 L 287.2 17.7 L 282.4 42.7 L 282.4 42.7 Q 282.3 43.5 282.3 44.9 L 282.3 44.9 L 282.3 44.9 Q 282.3 46.3 283.1 47.2 L 283.1 47.2 L 283.1 47.2 Q 284 48.1 285.3 48.2 L 285.3 48.2 L 285.3 48.2 Q 284.6 50.4 282.3 51.7 L 282.3 51.7 L 282.3 51.7 Q 280 52.9 277.3 52.9 L 277.3 52.9 L 277.3 52.9 Q 274.7 52.9 272.9 51.9 L 272.9 51.9 L 272.9 51.9 Q 271.2 51 270.7 49.3 L 270.7 49.3 L 270.7 49.3 Q 269.6 50.9 267.5 51.9 L 267.5 51.9 L 267.5 51.9 Q 265.3 52.9 262.4 52.9 L 262.4 52.9 L 262.4 52.9 Q 259.5 52.9 257.1 52.2 L 257.1 52.2 L 257.1 52.2 Q 254.7 51.4 253.2 49.7 Z M 266.7 23.8 L 266.7 23.8 L 266.7 23.8 Q 266 24.9 265.4 26.9 L 265.4 26.9 L 265.4 26.9 Q 264.7 28.8 263.7 34 L 263.7 34 L 263.7 34 Q 262.6 39.2 262.6 43 L 262.6 43 L 262.6 43 Q 262.6 46.7 263.2 47.8 L 263.2 47.8 L 263.2 47.8 Q 263.8 48.8 264.8 48.8 L 264.8 48.8 L 264.8 48.8 Q 266.8 48.8 268.3 46.9 L 268.3 46.9 L 268.3 46.9 Q 269.8 44.9 270.4 41.5 L 270.4 41.5 L 273.8 22.7 L 273.8 22.7 Q 272.5 21.6 270.9 21.6 L 270.9 21.6 L 270.9 21.6 Q 269.3 21.6 268.4 22.1 L 268.4 22.1 L 268.4 22.1 Q 267.5 22.6 266.7 23.8 Z M 305.9 48.1 L 305.9 48.1 L 305.9 48.1 Q 304 52.9 297.6 52.9 L 297.6 52.9 L 297.6 52.9 Q 294.4 52.9 292.4 50.7 L 292.4 50.7 L 292.4 50.7 Q 290.7 48.8 290.7 46.7 L 290.7 46.7 L 290.7 46.7 Q 290.7 41.9 292.9 31.4 L 292.9 31.4 L 297.6 6.9 L 310.6 5.6 L 304.4 38 L 304.4 38 Q 303.3 42.7 303.3 44.4 L 303.3 44.4 L 303.3 44.4 Q 303.3 48 305.9 48.1 Z M 326.7 48.1 L 326.7 48.1 L 326.7 48.1 Q 324.7 52.9 318.4 52.9 L 318.4 52.9 L 318.4 52.9 Q 315.2 52.9 313.1 50.7 L 313.1 50.7 L 313.1 50.7 Q 311.4 48.8 311.4 46.7 L 311.4 46.7 L 311.4 46.7 Q 311.4 41.9 313.7 31.4 L 313.7 31.4 L 318.4 6.9 L 331.3 5.6 L 325.1 38 L 325.1 38 Q 324 42.7 324 44.4 L 324 44.4 L 324 44.4 Q 324 48 326.7 48.1 Z M 358 40.8 L 358 40.8 L 358 40.8 Q 359.6 41.9 359.6 44.3 L 359.6 44.3 L 359.6 44.3 Q 359.6 46.7 358.4 48.3 L 358.4 48.3 L 358.4 48.3 Q 357.2 49.8 355.2 50.8 L 355.2 50.8 L 355.2 50.8 Q 351.1 52.9 346.7 52.9 L 346.7 52.9 L 346.7 52.9 Q 342.3 52.9 339.7 52 L 339.7 52 L 339.7 52 Q 337.1 51 335.4 49.2 L 335.4 49.2 L 335.4 49.2 Q 332 45.8 332 39.6 L 332 39.6 L 332 39.6 Q 332 30 337.2 24.1 L 337.2 24.1 L 337.2 24.1 Q 342.9 17.7 352.7 17.7 L 352.7 17.7 L 352.7 17.7 Q 358.7 17.7 361.7 20.3 L 361.7 20.3 L 361.7 20.3 Q 364 22.2 364 25.4 L 364 25.4 L 364 25.4 Q 364 36.6 344.5 36.6 L 344.5 36.6 L 344.5 36.6 Q 344.3 38.3 344.3 39.7 L 344.3 39.7 L 344.3 39.7 Q 344.3 42.6 345.6 43.8 L 345.6 43.8 L 345.6 43.8 Q 346.9 44.9 349.3 44.9 L 349.3 44.9 L 349.3 44.9 Q 351.8 44.9 354.4 43.8 L 354.4 43.8 L 354.4 43.8 Q 356.9 42.6 358 40.8 Z M 345 33.9 L 345 33.9 L 345 33.9 Q 349.5 33.9 352.1 31 L 352.1 31 L 352.1 31 Q 354.8 28.4 354.8 24.1 L 354.8 24.1 L 354.8 24.1 Q 354.8 22.6 354.2 21.8 L 354.2 21.8 L 354.2 21.8 Q 353.7 21 352.6 21 L 352.6 21 L 352.6 21 Q 351.5 21 350.6 21.4 L 350.6 21.4 L 350.6 21.4 Q 349.6 21.8 348.7 23.2 L 348.7 23.2 L 348.7 23.2 Q 346.3 26.4 345 33.9 Z M 386.2 33.7 L 386.2 33.7 L 386.2 33.7 Q 388.5 29.6 388.5 25.4 L 388.5 25.4 L 388.5 25.4 Q 388.5 22.7 386.5 22.7 L 386.5 22.7 L 386.5 22.7 Q 385 22.7 383.4 25.3 L 383.4 25.3 L 383.4 25.3 Q 381.7 27.9 381.2 31.3 L 381.2 31.3 L 377.9 51.7 L 364.6 52.9 L 371.2 19 L 381.7 17.7 L 380.6 24.2 L 380.6 24.2 Q 383.7 17.7 390.7 17.7 L 390.7 17.7 L 390.7 17.7 Q 394.4 17.7 396.5 19.7 L 396.5 19.7 L 396.5 19.7 Q 398.5 21.6 398.5 25.5 L 398.5 25.5 L 398.5 25.5 Q 398.5 29.4 395.9 31.9 L 395.9 31.9 L 395.9 31.9 Q 393.3 34.4 388.9 34.4 L 388.9 34.4 L 388.9 34.4 Q 387 34.4 386.2 33.7 Z M 419.9 44.4 L 419.9 44.4 L 419.9 44.4 Q 416.5 47.9 410.4 47.9 L 410.4 47.9 L 410.4 47.9 Q 402.8 47.9 401.2 42.3 L 401.2 42.3 L 401.2 42.3 Q 400.7 40.6 400.7 38.8 L 400.7 38.8 L 400.7 38.8 Q 400.7 36.9 401.1 35 L 401.1 35 L 404.1 19 L 417.1 17.7 L 413.6 36.4 L 413.6 36.4 Q 413.5 37.2 413.3 38.1 L 413.3 38.1 L 413.3 38.1 Q 413.1 39 413.1 39.9 L 413.1 39.9 L 413.1 39.9 Q 413.1 40.8 413.4 41.4 L 413.4 41.4 L 413.4 41.4 Q 413.7 42.1 414.2 42.4 L 414.2 42.4 L 414.2 42.4 Q 414.9 43 416.3 43 L 416.3 43 L 416.3 43 Q 417.7 43 418.9 41.3 L 418.9 41.3 L 418.9 41.3 Q 420 39.6 420.6 36.7 L 420.6 36.7 L 424.1 19 L 436.8 17.7 L 432 42.9 L 432 42.9 Q 429.6 55.2 424.7 60 L 424.7 60 L 424.7 60 Q 422.2 62.5 419 63.5 L 419 63.5 L 419 63.5 Q 415.8 64.5 411.6 64.5 L 411.6 64.5 L 411.6 64.5 Q 404.9 64.5 401 62.4 L 401 62.4 L 401 62.4 Q 397.2 60.3 397.2 56.8 L 397.2 56.8 L 397.2 56.8 Q 397.2 54.2 399.2 52.6 L 399.2 52.6 L 399.2 52.6 Q 401.2 51.1 404.2 51.1 L 404.2 51.1 L 404.2 51.1 Q 406.9 51.1 409 52.3 L 409 52.3 L 409 52.3 Q 410.2 53 410.8 53.9 L 410.8 53.9 L 410.8 53.9 Q 409.3 55.2 409.3 57.3 L 409.3 57.3 L 409.3 57.3 Q 409.3 60.1 411.9 60.1 L 411.9 60.1 L 411.9 60.1 Q 416.1 60.1 418.5 50.4 L 418.5 50.4 L 418.5 50.4 Q 419.2 47.5 419.9 44.4 Z" fill="url(#editing-gradient-gradient)"></path></g></g><style>text {
  font-size: 64px;
  font-family: Arial Black;
  dominant-baseline: central;
  text-anchor: middle;
}</style></svg>